<?xml version="1.0" encoding="utf-8"?>
<!-- Generator: Adobe Illustrator 23.0.6, SVG Export Plug-In . SVG Version: 6.00 Build 0)  -->
<svg version="1.1" id="Layer_1" xmlns="http://www.w3.org/2000/svg" xmlns:xlink="http://www.w3.org/1999/xlink" x="0px" y="0px"
	 viewBox="0 0 46.8 29.8" style="enable-background:new 0 0 46.8 29.8;" xml:space="preserve">
<style type="text/css">
	.st0{fill:none;stroke:#fff;stroke-width:0.8;stroke-linecap:round;stroke-linejoin:round;}
	.st1{fill:none;stroke:#fff;stroke-width:0.8;stroke-linecap:round;stroke-linejoin:round;stroke-dasharray:1.000000e-02,1.93;}
	.st2{fill:none;stroke:#fff;stroke-width:0.8;stroke-linecap:round;stroke-linejoin:round;stroke-dasharray:1.000000e-02,1.95;}
	.st3{fill:none;stroke:#fff;stroke-width:0.8;stroke-linecap:round;stroke-linejoin:round;stroke-dasharray:1.000000e-02,1.96;}
</style>
<title>Entwicklung</title>
<g>
	<g id="Front_4">
		
			<rect x="2.8" y="4.7" transform="matrix(0.7071 -0.7071 0.7071 0.7071 -4.9448 11.9479)" class="st0" width="18.2" height="14.4"/>
		<path class="st0" d="M9.2,4.5C8,5.7,12.3,8.6,14.3,9.6c1.8,0.9,6.4,3.8,5.1,5.1"/>
		<polygon class="st0" points="15.7,18.4 23.3,18.4 23.3,15.7 18.4,15.7 		"/>
		<path class="st0" d="M26,13.8h-0.6c-1.1,0-2,0.9-2,2v2.5c0,1.1,0.9,2,2,2H26V13.8z"/>
		<line class="st0" x1="23.3" y1="15.8" x2="20.8" y2="13.3"/>
		<path class="st0" d="M2.4,11.3c-2.5-2.5-2.5-6.5,0-8.9s6.5-2.5,8.9,0"/>
		<path class="st0" d="M46.4,29.4c0-2.8-3.2-5.6-7.2-5.6s-7.2,2.8-7.2,5.6H46.4z"/>
		<line class="st0" x1="39.2" y1="23.9" x2="39.2" y2="4.8"/>
		<path class="st0" d="M45.3,18.6c-1,1-2.7,1-3.8,0s-1-2.7,0-3.8c1-1,4.8-1,4.8-1S46.4,17.6,45.3,18.6z"/>
		<line class="st0" x1="43.3" y1="16.9" x2="39.2" y2="21"/>
		<path class="st0" d="M45.3,7.7c-1,1-2.7,1-3.8,0s-1-2.7,0-3.8c1-1,4.8-1.1,4.8-1.1S46.4,6.7,45.3,7.7z"/>
		<line class="st0" x1="43.3" y1="5.9" x2="39.2" y2="10"/>
		<path class="st0" d="M33.1,13.4c1.1,1,2.8,1,3.8-0.1c1-1,1-2.6,0-3.6c-1-1-4.8-1.1-4.8-1.1S32.1,12.4,33.1,13.4z"/>
		<line class="st0" x1="35.1" y1="11.6" x2="39.2" y2="15.7"/>
		<path class="st0" d="M27.9,17.1L27.9,17.1"/>
		<path class="st1" d="M29.8,17.6c2.1,0.9,3.9,2.4,5,4.4"/>
		<path class="st0" d="M35.3,22.8L35.3,22.8"/>
		<path class="st0" d="M36.8,22.5L36.8,22.5"/>
		<path class="st2" d="M35.9,20.7c-1.6-2.5-4.1-4.3-7-5"/>
		<path class="st0" d="M27.9,15.5L27.9,15.5"/>
		<path class="st0" d="M35.3,22.8L35.3,22.8"/>
		<path class="st1" d="M34.3,21.1c-1.3-1.9-3.2-3.2-5.4-3.9"/>
		<path class="st0" d="M27.9,17.1L27.9,17.1"/>
		<path class="st0" d="M27.9,18.6L27.9,18.6"/>
		<path class="st3" d="M29.8,19.2c1.5,0.7,2.8,1.9,3.6,3.3"/>
		<path class="st0" d="M33.9,23.4L33.9,23.4"/>
	</g>
</g>
</svg>
