<?xml version="1.0" encoding="utf-8"?>
<!-- Generator: Adobe Illustrator 23.0.6, SVG Export Plug-In . SVG Version: 6.00 Build 0)  -->
<svg version="1.1" id="Layer_1" xmlns="http://www.w3.org/2000/svg" xmlns:xlink="http://www.w3.org/1999/xlink" x="0px" y="0px"
	 viewBox="0 0 46.8 30.1" style="enable-background:new 0 0 46.8 30.1;" xml:space="preserve">
<style type="text/css">
	.st0{fill:none;stroke:#fff;stroke-width:0.8;stroke-linecap:round;stroke-linejoin:round;}
</style>
<title>Flexible</title>
<g>
	<g id="Front_4">
		<path class="st0" d="M9.6,15.1h27.5c2.4,0,4.3,1.9,4.3,4.3v0c0,2.4-1.9,4.3-4.3,4.3H9.6c-2.4,0-4.4-1.9-4.4-4.3v0
			C5.2,17,7.2,15.1,9.6,15.1z"/>
		<path class="st0" d="M6.7,10.5V8.2c0-4.3,3.5-7.8,7.8-7.8h17.7c4.3,0,7.8,3.5,7.8,7.7c0,0,0,0,0,0v2.3"/>
		<path class="st0" d="M6.7,23.8H40c0.8,0,1.4,0.6,1.4,1.4l0,0c0,0.8-0.6,1.4-1.4,1.4H6.7c-0.8,0-1.4-0.6-1.4-1.4l0,0
			C5.2,24.4,5.9,23.8,6.7,23.8z"/>
		<path class="st0" d="M41.6,19.9c2.7,0,4.8-2.2,4.8-4.8c0-2.7-2.2-4.8-4.8-4.8c-2.7,0-4.8,2.2-4.8,4.8c0,0,0,0,0,0"/>
		<path class="st0" d="M10.1,15.1c0-2.7-2.2-4.8-4.8-4.8c-2.7,0-4.8,2.2-4.8,4.8s2.2,4.8,4.8,4.8c0,0,0,0,0,0"/>
		<line class="st0" x1="9.4" y1="26.7" x2="9.4" y2="29.7"/>
		<line class="st0" x1="37.3" y1="26.7" x2="37.3" y2="29.7"/>
		<line class="st0" x1="12.2" y1="5.5" x2="14.1" y2="7.3"/>
		<line class="st0" x1="12.2" y1="7.3" x2="14.1" y2="5.5"/>
		<line class="st0" x1="22.4" y1="5.5" x2="24.3" y2="7.3"/>
		<line class="st0" x1="22.4" y1="7.3" x2="24.3" y2="5.5"/>
		<line class="st0" x1="32.6" y1="5.5" x2="34.4" y2="7.3"/>
		<line class="st0" x1="32.6" y1="7.3" x2="34.4" y2="5.5"/>
	</g>
</g>
</svg>
