<?xml version="1.0" encoding="utf-8"?>
<!-- Generator: Adobe Illustrator 23.0.6, SVG Export Plug-In . SVG Version: 6.00 Build 0)  -->
<svg version="1.1" id="Layer_1" xmlns="http://www.w3.org/2000/svg" xmlns:xlink="http://www.w3.org/1999/xlink" x="0px" y="0px"
	 viewBox="0 0 46.8 43.5" style="enable-background:new 0 0 46.8 43.5;" xml:space="preserve">
<style type="text/css">
	.st0{fill:none;stroke:#fff;stroke-width:0.8;stroke-linecap:round;stroke-linejoin:round;}
</style>
<title>Ideen</title>
<g>
	<g id="Front_4">
		<path class="st0" d="M27.4,41.4c0,1-1.8,1.7-3.9,1.7s-3.9-0.8-3.9-1.7"/>
		<path class="st0" d="M29.1,39.2c0,1.4-2.6,2.5-5.8,2.5s-5.8-1.1-5.8-2.5"/>
		<path class="st0" d="M29.1,36.7c0,1.4-2.6,2.5-5.8,2.5s-5.8-1.1-5.8-2.5"/>
		<path class="st0" d="M23.4,36.5L23.4,36.5c-5,0-9.1-4.1-9.1-9.1L13.1,8c0-5,10.2-7.6,10.2-7.6l0,0c0,0,10.2,2.5,10.2,7.6
			l-1.1,19.3C32.5,32.4,28.4,36.4,23.4,36.5z"/>
		<line class="st0" x1="23.4" y1="36.5" x2="23.4" y2="19.5"/>
		<circle class="st0" cx="23.4" cy="19.5" r="1.9"/>
		<line class="st0" x1="8.7" y1="3.9" x2="2" y2="0.4"/>
		<line class="st0" x1="8.1" y1="10.5" x2="0.4" y2="10.5"/>
		<line class="st0" x1="8.1" y1="17.6" x2="1.6" y2="19.7"/>
		<line class="st0" x1="38.1" y1="3.9" x2="44.8" y2="0.4"/>
		<line class="st0" x1="38.7" y1="10.5" x2="46.4" y2="10.5"/>
		<line class="st0" x1="38.7" y1="17.6" x2="45.2" y2="19.7"/>
	</g>
</g>
</svg>
