<?xml version="1.0" encoding="utf-8"?>
<!-- Generator: Adobe Illustrator 23.0.6, SVG Export Plug-In . SVG Version: 6.00 Build 0)  -->
<svg version="1.1" id="Layer_1" xmlns="http://www.w3.org/2000/svg" xmlns:xlink="http://www.w3.org/1999/xlink" x="0px" y="0px"
	 viewBox="0 0 42 47" style="enable-background:new 0 0 42 47;" xml:space="preserve">
<style type="text/css">
	.st0{fill:none;stroke:#fff;stroke-width:0.8;stroke-linecap:round;stroke-miterlimit:10;}
</style>
<title>Life-Work</title>
<g>
	<g id="Front_4">
		<path class="st0" d="M17.3,20c5.4,0,9.8-4.4,9.8-9.8s-4.4-9.8-9.8-9.8s-9.8,4.4-9.8,9.8C7.5,15.6,11.9,20,17.3,20z"/>
		<path class="st0" d="M33.8,32.3c-0.6-4.5-1.9-7.9-3.9-9.9c-1.4-1.5-3.4-2.4-5.6-2.4h-0.2l-6.9,8.4L10.4,20h-0.2
			c-2.1,0-4.1,0.8-5.6,2.4c-2,2.1-3.3,5.4-3.9,9.9c-0.3,2-0.4,4.1-0.3,6.2v0.4h23.5"/>
		<path class="st0" d="M37.5,32.8c-1.1,0-2.1,0.4-2.9,1.2l0,0l-0.8,0.8L33,34l0,0c-1.7-1.5-4.2-1.4-5.8,0.2c-1.5,1.6-1.5,4,0,5.6
			l0,0l0.8,0.8l5.8,5.8l5.8-5.8l0.8-0.8l0,0c1.6-1.6,1.6-4.2,0-5.8C39.7,33.2,38.6,32.8,37.5,32.8L37.5,32.8z"/>
	</g>
</g>
</svg>
